<svg width="248" height="248" viewBox="0 0 248 248" fill="none" xmlns="http://www.w3.org/2000/svg">
<path d="M213.355 92.9255L244.206 62.0743C245.198 61.1071 245.644 59.7431 245.495 58.4039C245.297 57.0151 244.503 55.8247 243.338 55.1303L160.134 7.06794C158.423 6.07594 156.24 6.37354 154.851 7.78714L124 38.6383L93.1489 7.81194C91.7353 6.39834 89.5777 6.10074 87.8417 7.09274L4.66253 55.1551C3.44733 55.8495 2.67853 57.0399 2.50493 58.4287C2.33133 59.7431 2.75293 61.1319 3.72013 62.0991L34.5713 92.9503L3.74493 123.826C2.77773 124.794 2.33133 126.158 2.52973 127.497C2.67853 128.836 3.47213 130.051 4.68733 130.721L36.4313 149.073V189.05C36.4313 190.638 37.2745 192.076 38.6137 192.87L121.818 240.957C122.487 241.378 123.256 241.527 124 241.527C124.744 241.527 125.513 241.354 126.183 240.957L209.362 192.87C210.701 192.076 211.544 190.638 211.544 189.05V149.073L243.313 130.721C244.479 130.026 245.272 128.836 245.471 127.497C245.644 126.133 245.173 124.794 244.181 123.826L213.355 92.9255ZM198.375 92.3799L124 135.358L49.6001 92.3799L105.375 60.1399L124 49.4015L191.283 88.2383L198.375 92.3799ZM158.671 15.8223L233.963 59.3711L206.435 86.8991L201.922 84.2951L131.118 43.3751L158.671 15.8223ZM89.3297 15.8223L116.883 43.3751L41.5401 86.8743L13.9873 59.3463L89.3297 15.8223ZM41.5401 97.8607L116.833 141.41L89.3049 168.938L42.9785 142.154C42.9537 142.154 42.9537 142.154 42.9537 142.154L13.9873 125.414L41.5401 97.8607ZM45.1857 153.586L87.8417 178.213C88.5361 178.634 89.2801 178.808 90.0241 178.808C90.1233 178.808 90.1729 178.709 90.2721 178.709C91.2889 178.684 92.3305 178.337 93.1241 177.543L119.611 151.057V228.978L45.1857 185.95V153.586ZM202.765 185.95L128.365 228.954V151.057L154.802 177.543C155.571 178.312 156.587 178.634 157.629 178.709C157.728 178.709 157.803 178.808 157.877 178.808C158.646 178.808 159.39 178.634 160.059 178.213L202.715 153.586V185.95H202.765ZM158.646 168.913L131.118 141.385L206.435 97.8359L233.963 125.389L158.646 168.913Z" fill="white"/>
</svg>
