<svg width="244" height="236" viewBox="0 0 244 236" fill="none" xmlns="http://www.w3.org/2000/svg">
<path d="M210.888 86.4401L241.739 55.5889C242.731 54.6217 243.177 53.2577 243.028 51.9185C242.83 50.5297 242.036 49.3393 240.871 48.6449L157.667 0.58259C155.956 -0.40941 153.773 -0.111811 152.384 1.30179L121.533 32.153L90.6821 1.32659C89.2685 -0.0870104 87.1109 -0.384611 85.3749 0.607389L2.19573 48.6698C0.98053 49.3642 0.21173 50.5545 0.0381303 51.9433C-0.13547 53.2577 0.28613 54.6465 1.25333 55.6137L32.1045 86.465L1.27813 117.341C0.31093 118.309 -0.13547 119.673 0.0629303 121.012C0.21173 122.351 1.00533 123.566 2.22053 124.236L33.9645 142.588V182.565C33.9645 184.153 34.8077 185.591 36.1469 186.385L119.351 234.472C120.02 234.893 120.789 235.042 121.533 235.042C122.277 235.042 123.046 234.869 123.716 234.472L206.895 186.385C208.234 185.591 209.077 184.153 209.077 182.565V142.588L240.846 124.236C242.012 123.541 242.805 122.351 243.004 121.012C243.177 119.648 242.706 118.309 241.714 117.341L210.888 86.4401ZM195.908 85.8945L121.533 128.873L47.1333 85.8945L102.908 53.6545L121.533 42.9161L188.816 81.7529L195.908 85.8945ZM156.204 9.33695L231.496 52.8857L203.968 80.4137L199.455 77.8097L128.651 36.8897L156.204 9.33695ZM86.8629 9.33695L114.416 36.8897L39.0733 80.3889L11.5205 52.8609L86.8629 9.33695ZM39.0733 91.3754L114.366 134.925L86.8381 162.453L40.5117 135.669C40.4869 135.669 40.4869 135.669 40.4869 135.669L11.5205 118.929L39.0733 91.3754ZM42.7189 147.101L85.3749 171.728C86.0693 172.149 86.8133 172.323 87.5573 172.323C87.6565 172.323 87.7061 172.224 87.8053 172.224C88.8221 172.199 89.8637 171.852 90.6573 171.058L117.144 144.572V222.493L42.7189 179.465V147.101ZM200.298 179.465L125.898 222.469V144.572L152.335 171.058C153.104 171.827 154.12 172.149 155.162 172.224C155.261 172.224 155.336 172.323 155.41 172.323C156.179 172.323 156.923 172.149 157.592 171.728L200.248 147.101V179.465H200.298ZM156.179 162.428L128.651 134.9L203.968 91.3505L231.496 118.904L156.179 162.428Z" fill="#898989"/>
</svg>