<svg width="123" height="105" viewBox="0 0 123 105" fill="none" xmlns="http://www.w3.org/2000/svg">
<g clip-path="url(#clip0_614_228)">
<path d="M62.63 6.25C63.19 3.4 64.66 1.57 66.67 0.640002C68.3 -0.119998 70.21 -0.189998 72.19 0.330002C73.91 0.780002 75.72 1.7 77.45 3.02C82.14 6.59 86.53 13.32 87.09 21.73C87.26 24.32 87.21 27.08 86.97 30.02C86.81 31.96 86.56 34 86.22 36.12H106.17L106.26 36.13C109.5 36.26 112.64 37.05 115.29 38.43C117.58 39.63 119.51 41.27 120.85 43.31C122.23 45.41 122.98 47.91 122.87 50.77C122.79 52.89 122.22 55.19 121.06 57.64C121.72 60.4 122.03 63.36 121.6 65.96C121.24 68.17 120.38 70.13 118.84 71.59C118.92 75.24 118.43 78.3 117.45 80.95C116.44 83.67 114.93 85.93 112.99 87.93C112.82 89.68 112.54 91.35 112.1 92.91C111.55 94.87 110.74 96.67 109.61 98.26C106.21 103.06 103.49 102.95 99.18 102.77C98.58 102.75 97.94 102.72 96.94 102.72H57.91C54.4 102.72 51.64 102.21 49.12 100.95C46.63 99.7 44.5 97.78 42.23 94.94L41.65 93.28V47.78L43.63 47.25C48.66 45.89 52.62 41.59 55.7 36.44C58.86 31.14 61.08 24.94 62.6 19.93V6.76L62.63 6.25ZM4 43.02H33.08C35.28 43.02 37.08 44.82 37.08 47.02V100.19C37.08 102.39 35.28 104.19 33.08 104.19H4C1.8 104.19 0 102.39 0 100.19V47.02C0 44.82 1.8 43.02 4 43.02ZM68.9 5.48C68.47 5.68 68.12 6.18 67.91 7.04V20.3L67.79 21.06C66.18 26.43 63.78 33.23 60.24 39.16C56.91 44.73 52.59 49.52 46.97 51.73V92.34C48.51 94.17 49.93 95.41 51.49 96.19C53.21 97.05 55.23 97.39 57.91 97.39H96.94C97.64 97.39 98.54 97.43 99.39 97.46C101.95 97.56 103.56 97.63 105.29 95.19V95.18C106.04 94.12 106.59 92.87 106.98 91.47C107.4 89.98 107.65 88.32 107.77 86.55L108.59 84.8C110.31 83.17 111.62 81.34 112.46 79.09C113.32 76.77 113.69 73.98 113.48 70.48L113.39 68.9L114.73 68.07C115.65 67.5 116.15 66.42 116.36 65.1C116.7 63 116.34 60.43 115.69 58.04L115.9 56.11C116.98 54.04 117.5 52.19 117.57 50.57C117.63 48.89 117.2 47.43 116.4 46.22C115.56 44.95 114.33 43.91 112.84 43.13C110.92 42.12 108.6 41.54 106.18 41.44V41.45H79.86L80.45 38.3C81.02 35.25 81.43 32.34 81.67 29.58C81.9 26.88 81.94 24.37 81.79 22.09C81.34 15.37 77.9 10.05 74.23 7.26C73.06 6.37 71.9 5.76 70.85 5.49C70.04 5.27 69.38 5.26 68.9 5.48Z" fill="#3491FF"/>
</g>
<defs>
<clipPath id="clip0_614_228">
<rect width="122.88" height="104.19" fill="white"/>
</clipPath>
</defs>
</svg>
